#!OML:ASF C:\Vicon Data\Big\jianyuan-13\jianyuan\Session 1\Capture.male.ASF
:FULLY-SPECIFIED
:DEGREES
237
root -5.479848 17.508853 -0.681573 1.273396 11.253107 0.450894
lowerback -13.036589 -2.467804 -2.807873 
upperback 1.649607 -2.945714 1.052015 
thorax 9.313016 -1.601951 2.096339 
lowerneck -1.350367 -2.675458 3.737998 
upperneck 14.235321 -2.508477 -4.963987 
head 4.347848 -1.006861 -2.222053 
rclavicle 0.000000 0.000000 
rhumerus -40.216094 -20.404933 -74.508521 
rradius 33.304733 
rwrist 29.344634 
rhand -17.744103 -17.471367 
rfingers 0.000000 
rthumb 8.517286 -47.279551 
lclavicle 0.000000 0.000000 
lhumerus -20.187845 12.524831 93.516599 
lradius 36.415428 
lwrist -38.556056 
lhand -18.469531 1.470569 
lfingers 0.000000 
lthumb 7.817198 31.306051 
rfemur -59.192323 -2.136998 13.472687 
rtibia 58.019544 
rfoot -11.566522 -4.621837 
rtoes -34.814718 
lfemur 8.473161 -5.406633 -25.617674 
ltibia 13.673083 
lfoot -15.378128 -2.740569 
ltoes -23.826970 
238
root -5.484855 17.489793 -0.594594 1.449451 11.466130 0.557185
lowerback -13.117700 -2.495639 -2.941425 
upperback 1.619546 -2.961315 1.069752 
thorax 9.336471 -1.617025 2.185066 
lowerneck -1.380504 -2.752385 3.474687 
upperneck 14.365617 -2.603991 -4.797659 
head 4.395456 -1.054026 -2.132712 
rclavicle 0.000000 0.000000 
rhumerus -40.190376 -19.430402 -74.964427 
rradius 33.716094 
rwrist 28.304826 
rhand -17.884129 -17.892582 
rfingers 0.000000 
rthumb 8.382155 -47.706145 
lclavicle 0.000000 0.000000 
lhumerus -20.313988 12.611334 93.567518 
lradius 36.194984 
lwrist -38.555685 
lhand -18.689242 1.466352 
lfingers 0.000000 
lthumb 7.605072 31.309613 
rfemur -58.371915 -2.023454 13.344902 
rtibia 56.585715 
rfoot -11.622072 -4.650499 
rtoes -34.639035 
lfemur 8.513008 -5.628280 -25.684329 
ltibia 13.931507 
lfoot -15.608221 -2.841306 
ltoes -23.433310 
239
root -5.491595 17.471831 -0.507254 1.715423 11.679819 0.711066
lowerback -13.265996 -2.568786 -3.158109 
upperback 1.543622 -3.017663 1.035573 
thorax 9.353026 -1.653882 2.254474 
lowerneck -1.333711 -2.821762 3.551064 
upperneck 14.547925 -2.667289 -4.855690 
head 4.437923 -1.074439 -2.166743 
rclavicle 0.000000 0.000000 
rhumerus -40.180031 -19.227388 -75.162306 
rradius 33.827923 
rwrist 27.810897 
rhand -18.070149 -17.979997 
rfingers 0.000000 
rthumb 8.202645 -47.800811 
lclavicle 0.000000 0.000000 
lhumerus -20.526497 12.798257 93.440620 
lradius 36.054854 
lwrist -38.627541 
lhand -18.624879 1.529218 
lfingers 0.000000 
lthumb 7.667223 31.370200 
rfemur -57.644428 -1.822617 13.115640 
rtibia 55.147078 
rfoot -11.801972 -4.790373 
rtoes -34.543886 
lfemur 8.376538 -5.642178 -25.733248 
ltibia 14.302179 
lfoot -15.730573 -3.095102 
ltoes -23.454440 
240
root -5.494615 17.451430 -0.419520 1.953284 11.881423 0.878786
lowerback -13.368117 -2.626848 -3.269553 
upperback 1.488216 -3.067965 0.961026 
thorax 9.356700 -1.681018 2.223483 
lowerneck -1.296342 -2.842764 3.676462 
upperneck 14.722555 -2.663722 -4.950469 
head 4.481037 -1.061713 -2.217785 
rclavicle 0.000000 0.000000 
rhumerus -40.205901 -19.620313 -75.014264 
rradius 33.804777 
rwrist 28.309290 
rhand -17.830127 -17.817055 
rfingers 0.000000 
rthumb 8.434276 -47.628679 
lclavicle 0.000000 0.000000 
lhumerus -20.782739 12.675505 93.329002 
lradius 36.040376 
lwrist -38.431420 
lhand -18.662223 1.551544 
lfingers 0.000000 
lthumb 7.631173 31.393878 
rfemur -56.868357 -1.738338 12.926806 
rtibia 53.678171 
rfoot -11.779027 -4.712095 
rtoes -34.582346 
lfemur 8.278597 -5.706521 -25.814808 
ltibia 14.681752 
lfoot -15.848515 -3.334847 
ltoes -23.028156 
241
root -5.499298 17.437547 -0.332392 2.070384 12.052142 0.969499
lowerback -13.363468 -2.639095 -3.416151 
upperback 1.473833 -3.063876 0.996556 
thorax 9.348715 -1.687644 2.345754 
lowerneck -1.304691 -2.926473 3.522951 
upperneck 14.885726 -2.757148 -4.869013 
head 4.532101 -1.104002 -2.172696 
rclavicle 0.000000 0.000000 
rhumerus -40.251522 -19.407493 -75.001742 
rradius 34.007394 
rwrist 28.175010 
rhand -18.018062 -17.869558 
rfingers 0.000000 
rthumb 8.252935 -47.688325 
lclavicle 0.000000 0.000000 
lhumerus -20.857870 13.179510 93.353621 
lradius 35.777510 
lwrist -38.982483 
lhand -18.600344 1.405743 
lfingers 0.000000 
lthumb 7.690917 31.245905 
rfemur -55.964645 -1.523775 12.781616 
rtibia 52.203412 
rfoot -11.763875 -4.856400 
rtoes -34.466804 
lfemur 8.306284 -5.983551 -25.868435 
ltibia 15.072756 
lfoot -16.096708 -3.389686 
ltoes -22.749937 
242
root -5.503147 17.423137 -0.244813 2.179170 12.152530 0.992135
lowerback -13.405486 -2.610989 -3.394271 
upperback 1.499881 -3.024812 0.963442 
thorax 9.395399 -1.667277 2.304321 
lowerneck -1.341799 -3.037831 3.362140 
upperneck 14.994399 -2.919730 -4.646267 
head 4.571837 -1.177636 -2.085510 
rclavicle 0.000000 0.000000 
rhumerus -40.220668 -19.279863 -75.210804 
rradius 34.217845 
rwrist 27.407747 
rhand -18.117668 -18.018367 
rfingers 0.000000 
rthumb 8.156746 -47.840817 
lclavicle 0.000000 0.000000 
lhumerus -20.945364 13.063389 93.293303 
lradius 35.713686 
lwrist -38.960537 
lhand -18.575765 1.375717 
lfingers 0.000000 
lthumb 7.714661 31.214981 
rfemur -55.070613 -1.208123 12.680962 
rtibia 50.721025 
rfoot -11.843990 -4.930008 
rtoes -34.507603 
lfemur 8.349778 -5.749778 -25.726967 
ltibia 15.349459 
lfoot -16.107343 -3.775741 
ltoes -23.046754 
243
root -5.509361 17.409902 -0.158450 2.203231 12.320042 1.012658
lowerback -13.353497 -2.638066 -3.396116 
upperback 1.556508 -3.054855 0.903337 
thorax 9.426255 -1.680398 2.234840 
lowerneck -1.360652 -3.089662 3.499178 
upperneck 15.034635 -2.999934 -4.625133 
head 4.582006 -1.207939 -2.105515 
rclavicle 0.000000 0.000000 
rhumerus -40.207493 -19.838040 -75.080568 
rradius 34.118911 
rwrist 28.064012 
rhand -18.199599 -17.757171 
rfingers 0.000000 
rthumb 8.077664 -47.582866 
lclavicle 0.000000 0.000000 
lhumerus -21.017919 12.926523 93.127211 
lradius 35.626691 
lwrist -38.945599 
lhand -18.514362 1.495642 
lfingers 0.000000 
lthumb 7.773872 31.332724 
rfemur -54.070930 -0.883067 12.583533 
rtibia 49.261308 
rfoot -11.887128 -5.066079 
rtoes -34.198752 
lfemur 8.514768 -5.733288 -25.627074 
ltibia 15.593892 
lfoot -16.156197 -3.993148 
ltoes -23.179632 
244
root -5.511640 17.391196 -0.070043 2.298287 12.394308 1.083641
lowerback -13.392312 -2.612669 -3.455289 
upperback 1.595914 -3.009901 0.914724 
thorax 9.492880 -1.663249 2.288172 
lowerneck -1.325383 -3.109247 3.498704 
upperneck 15.048709 -3.007042 -4.710239 
head 4.578225 -1.213124 -2.131409 
rclavicle 0.000000 0.000000 
rhumerus -40.206248 -19.847602 -75.022706 
rradius 34.237413 
rwrist 27.922000 
rhand -18.148314 -17.727259 
rfingers 0.000000 
rthumb 8.127182 -47.550948 
lclavicle 0.000000 0.000000 
lhumerus -21.079040 13.004694 93.141653 
lradius 35.550253 
lwrist -39.226637 
lhand -18.376303 1.400056 
lfingers 0.000000 
lthumb 7.907124 31.232144 
rfemur -53.203743 -0.647842 12.474730 
rtibia 47.855774 
rfoot -11.903322 -5.112334 
rtoes -33.564152 
lfemur 8.666165 -5.753779 -25.646906 
ltibia 15.785533 
lfoot -16.268749 -4.089263 
ltoes -23.465118 
245
root -5.514943 17.376594 0.017543 2.403817 12.495426 1.172637
lowerback -13.378511 -2.606839 -3.497272 
upperback 1.612566 -2.993371 0.896595 
thorax 9.503376 -1.657125 2.296157 
lowerneck -1.177764 -3.183499 3.611868 
upperneck 14.984007 -3.087334 -4.861432 
head 4.524875 -1.251245 -2.196295 
rclavicle 0.000000 0.000000 
rhumerus -40.222548 -19.009002 -75.484944 
rradius 34.607378 
rwrist 26.623080 
rhand -18.593134 -18.082886 
rfingers 0.000000 
rthumb 7.697831 -47.922690 
lclavicle 0.000000 0.000000 
lhumerus -21.164504 13.056376 93.118470 
lradius 35.494993 
lwrist -39.364220 
lhand -18.334276 1.346208 
lfingers 0.000000 
lthumb 7.947716 31.176757 
rfemur -52.322794 -0.364532 12.337772 
rtibia 46.452574 
rfoot -11.894542 -5.191303 
rtoes -34.019564 
lfemur 8.779354 -5.927647 -25.708305 
ltibia 16.043980 
lfoot -16.435752 -4.066526 
ltoes -23.536788 
